<svg width="33" height="32" viewBox="0 0 33 32" fill="none" xmlns="http://www.w3.org/2000/svg">
<path d="M21.2867 16.3466C25.0643 16.3466 28.1267 13.2843 28.1267 9.50663C28.1267 5.729 25.0643 2.66663 21.2867 2.66663C17.509 2.66663 14.4467 5.729 14.4467 9.50663C14.4467 13.2843 17.509 16.3466 21.2867 16.3466Z" stroke="#9D9D9D" stroke-width="1.5" stroke-miterlimit="10"/>
<path d="M8.97994 25.92C11.248 25.92 13.0866 24.0814 13.0866 21.8133C13.0866 19.5453 11.248 17.7067 8.97994 17.7067C6.71189 17.7067 4.87329 19.5453 4.87329 21.8133C4.87329 24.0814 6.71189 25.92 8.97994 25.92Z" stroke="#9D9D9D" stroke-width="1.5" stroke-miterlimit="10"/>
<path d="M22.66 29.3334C24.5452 29.3334 26.0734 27.8052 26.0734 25.92C26.0734 24.0349 24.5452 22.5067 22.66 22.5067C20.7749 22.5067 19.2467 24.0349 19.2467 25.92C19.2467 27.8052 20.7749 29.3334 22.66 29.3334Z" stroke="#9D9D9D" stroke-width="1.5" stroke-miterlimit="10"/>
</svg>
