<svg width="18" height="18" viewBox="0 0 18 18" fill="none" xmlns="http://www.w3.org/2000/svg">
<path d="M6.28503 9.00006L8.09253 10.8151L11.715 7.18506" stroke="#C0C0C0" stroke-width="1.5" stroke-linecap="round" stroke-linejoin="round"/>
<path d="M8.06253 1.83749C8.58003 1.39499 9.42753 1.39499 9.95253 1.83749L11.1375 2.85749C11.3625 3.05249 11.7825 3.20999 12.0825 3.20999H13.3575C14.1525 3.20999 14.805 3.86249 14.805 4.65749V5.93249C14.805 6.22499 14.9625 6.65249 15.1575 6.87749L16.1775 8.06249C16.62 8.57999 16.62 9.42749 16.1775 9.95249L15.1575 11.1375C14.9625 11.3625 14.805 11.7825 14.805 12.0825V13.3575C14.805 14.1525 14.1525 14.805 13.3575 14.805H12.0825C11.79 14.805 11.3625 14.9625 11.1375 15.1575L9.95253 16.1775C9.43503 16.62 8.58753 16.62 8.06253 16.1775L6.87753 15.1575C6.65253 14.9625 6.23253 14.805 5.93253 14.805H4.63503C3.84003 14.805 3.18753 14.1525 3.18753 13.3575V12.075C3.18753 11.7825 3.03003 11.3625 2.84253 11.1375L1.83003 9.94499C1.39503 9.42749 1.39503 8.58749 1.83003 8.06999L2.84253 6.87749C3.03003 6.65249 3.18753 6.23249 3.18753 5.93999V4.64999C3.18753 3.85499 3.84003 3.20249 4.63503 3.20249H5.93253C6.22503 3.20249 6.65253 3.04499 6.87753 2.84999L8.06253 1.83749Z" stroke="#C0C0C0" stroke-width="1.5" stroke-linecap="round" stroke-linejoin="round"/>
</svg>
